/* XPM */
static char *cc37dfc5d3334019d29c11bb64904c68vwFAJjY4qpVlBWup[] = {
/* columns rows colors chars-per-pixel */
"32 32 135 2 ",
"   c #AD9465",
".  c #AF966A",
"X  c #AF986C",
"o  c #B29665",
"O  c #B39966",
"+  c #B3966A",
"@  c #B49B6C",
"#  c #B99D6D",
"$  c #B59D71",
"%  c #B99E73",
"&  c #BCA16F",
"*  c #BCA374",
"=  c #BEA876",
"-  c #BDA579",
";  c #BFA979",
":  c #C1A26C",
">  c #C2A574",
",  c #C6A976",
"<  c #CAAA76",
"1  c #C2A779",
"2  c #C4AA7B",
"3  c #CAAD7C",
"4  c #D0AF7A",
"5  c #CDB17C",
"6  c #D2B27D",
"7  c #C6AE81",
"8  c #CBAE81",
"9  c #C7B084",
"0  c #CCB283",
"q  c #CFB886",
"w  c #CEB689",
"e  c #CEB889",
"r  c #D2B584",
"t  c #D5B884",
"y  c #DAB985",
"u  c #D2B688",
"i  c #D6BC8B",
"p  c #D5BA8D",
"a  c #D4BC8E",
"s  c #D4BA8A",
"d  c #D9BB89",
"f  c #D8BC8A",
"g  c #D8BC8C",
"h  c #D9BD8D",
"j  c #DCBE8C",
"k  c #DDBF8D",
"l  c #DCBD8B",
"z  c #D3B990",
"x  c #D9BE91",
"c  c #DBBF90",
"v  c #D6C08F",
"b  c #DCC08E",
"n  c #DFC18B",
"m  c #DBC091",
"M  c #DCC090",
"N  c #DEC290",
"B  c #DCC192",
"V  c #DEC292",
"C  c #DEC493",
"Z  c #DEC393",
"A  c #DFC799",
"S  c #E2C28F",
"D  c #E2C28E",
"F  c #E3C390",
"G  c #E0C590",
"H  c #E2C490",
"J  c #E0C492",
"K  c #E2C792",
"L  c #E0C596",
"P  c #E2C696",
"I  c #E3C797",
"U  c #E4C592",
"Y  c #E6C896",
"T  c #E7C997",
"R  c #E5C895",
"E  c #E9C995",
"W  c #E5C999",
"Q  c #E7CB99",
"!  c #E7CF9F",
"~  c #E6CB9A",
"^  c #E9CB99",
"/  c #E8CC9A",
"(  c #EACC9A",
")  c #EBCD9B",
"_  c #EDCD9A",
"`  c #E8CE9D",
"'  c #EBCF9D",
"]  c #E9CF9E",
"[  c #ECCE9C",
"{  c #EDCF9D",
"}  c #EFCF9C",
"|  c #ECCD9A",
" . c #F0CF9A",
".. c #EAD09F",
"X. c #ECD09E",
"o. c #EDD19F",
"O. c #EED09E",
"+. c #EFD19F",
"@. c #EFD49F",
"#. c #EFD19D",
"$. c #F2D29D",
"%. c #EACFA0",
"&. c #EBD1A0",
"*. c #EED2A0",
"=. c #EFD3A1",
"-. c #ECD1A2",
";. c #EFD3A3",
":. c #EED2A1",
">. c #F0D2A0",
",. c #F1D3A1",
"<. c #F0D5A0",
"1. c #F1D5A3",
"2. c #F2D4A2",
"3. c #F0D6A3",
"4. c #F2D7A2",
"5. c #F2D6A4",
"6. c #F5D7A5",
"7. c #F3D5A2",
"8. c #F7D9A5",
"9. c #F4D8A6",
"0. c #F7D9A7",
"q. c #F4DAA7",
"w. c #F6D9A6",
"e. c #F8D8A5",
"r. c #F9DAA5",
"t. c #F4D8A8",
"y. c #F5DBA8",
"u. c #F4DAA9",
"i. c #F7DBAB",
"p. c #FBDBA8",
"a. c #F8DCAA",
"s. c #F8DEAD",
"d. c #FBDFAF",
"f. c #FADCAB",
"g. c #FEE3AE",
/* pixels */
"X $ $ $ $ * @   * @     O @ O   # & @   O & * @ X @ +   @ - $   ",
"- 9 e 9 7 9 e e 9 8 0 u u 3 3 u u q q t q 0 9 0 9 9 1 - 7 w 7 $ ",
"$ 7 e 7 - 2 9 0 0 9 0 s u 0 0 t u 0 0 s u 0 0 s s u 2 1 0 c e % ",
"* 9 e 2 - 2 9 2 0 2 * * > 3 2 > 2 1 > * > 3 9 3 2 2 * @ - 0 8 @ ",
"  @ * @ * 2 2 # & 2 2 # & 3 3 # > , > # > 0 3 @ - 2 1 @ @ 2 2 @ ",
"* 7 9 9 a ! -.L 0 ..d.t.-.9.9.>.-.9.t.2.t.d.` s u m p 1 * 9 8 * ",
". 2 0 1 3 B &.` u h Y O.>.[ [ [ -.` O.2.O.B u u B ~ c 2 2 u r * ",
"  9 s 1 @ 3 C ` -.s r Y 9.2.) O.f.) ~ 6.) 0 0 L h B u * > u 0 # ",
"+ 0 s 2 # i 0 s ) ^ k r S p.e.H @.2.$.K t r d H 0 0 B > 8 r 3 # ",
"* 0 0 3 0 &.u 2 d >.6.k r F [ _ 9.@.H t u n B s s s L > 3 u 3 @ ",
"> 0 3 3 s d.k r , k [ E y r U $.r.D 6 r n n t r F Y [ > < t 8 + ",
"* 0 0 2 0 6.^ O.r , 3 U _ j y U _ 6 6 U Y 5 , t ^ [ 6.> , t 8 O ",
"# 0 u 2 2 -.[ f._ 6 : 6 E E y 5 6 6 D D t , 5 H [ 2.6.> > u 8 O ",
"# 0 0 2 5 9.) O.$.E r : 6 E _ y : n E 5 > t ) _ 2.>.2.> , r 3 @ ",
"O 3 0 3 r 9.E _ E $.E 6 < j _ _ r n t > 3 _ e._ 7.$.>., 3 r 3 # ",
"  3 u 3 < $.) e.$.#.$._ y , r _ 7.r : 3 E e.$.E 7._ $.< 8 r 8 > ",
"+ 8 0 > 3 9.#.$.$.$.#.D r 3 r k _ E y 6 D p.p.E f._ ^ , r u 3 * ",
"+ 8 u 0 5 $.E $.$.$.E 6 6 j k r y $.$.j 6 D $.$.$._ 6.3 0 0 3 * ",
"O 8 u 0 0 @.E $.$.E y 6 y S d < < S $._ j y U 7.>.>.9.3 3 0 3 # ",
"+ 0 0 > 3 9.$.$.U 6 5 n S 6 < 6 l 4 t  .>.S y S p.6.-.& 2 s 0 o ",
"  u u * 2 g.$.D y 6 r S y < 3 U 7.y 3 j $._ d 3 ) [ -.* 2 u 9 O ",
"  u s 2 3 f.H 5 r n S r 3 t E $.>.#.j < t $.O.d r n 6.3 2 0 5 - ",
"+ 0 s 9 3 / t r d n d 5 y _ 6.$._ 7.^ r 3 k ) ^ s s ~ > 2 9 8 > ",
"% 8 0 8 1 i 0 Y F r < t $.p.7.E 6.$.$.^ t & < H 6.s 0   2 u 9 * ",
"@ 9 0 - > p C h 0 3 r Y 2.2.O.$.>.) O.e.Y 3 2 u s I C @ - 9 e + ",
"* 9 s 1 3 B C s 2 u L O.2.2._ Y 9.O.) [ >.~ s 3 s ~ ` 1 2 0 s @ ",
"@ 2 9 - 2 a u 1 0 ! d.t.6.9.7._ 2.6.` Y 6.d.~ 3 2 h A - 2 7 9 @ ",
"  - 1 @ @ - - + @ 1 3 > & > , < < t t 3 3 u 0 * # 2 0 + * - 2   ",
"@ 2 0 * @ - 2 - 7 1 > 2 > & , 5 & > 2 > * * > 1 1 2 7 + ; 2 7 X ",
"= t v 9 2 9 a z z 8 8 u s 5 5 t h u 0 s s u u p a s e * 0 e a - ",
"= 0 s 2 - 2 9 9 w 0 0 0 r 5 5 5 0 2 2 3 0 3 2 2 9 7 9 * 9 9 e - ",
"@ = ; @ X @ $ X $ * %     O O o o # > * @ O + O . . $   * * 2 $ "
};